<?xml version="1.0" encoding="UTF-8" standalone="no"?>
<!-- Created with Inkscape (http://www.inkscape.org/) -->

<svg
   xmlns:dc="http://purl.org/dc/elements/1.1/"
   xmlns:cc="http://creativecommons.org/ns#"
   xmlns:rdf="http://www.w3.org/1999/02/22-rdf-syntax-ns#"
   xmlns:svg="http://www.w3.org/2000/svg"
   xmlns="http://www.w3.org/2000/svg"
   xmlns:sodipodi="http://sodipodi.sourceforge.net/DTD/sodipodi-0.dtd"
   xmlns:inkscape="http://www.inkscape.org/namespaces/inkscape"
   id="svg3036"
   version="1.1"
   inkscape:version="0.48.2 r9819"
   width="70.866142"
   height="63.779526"
   xml:space="preserve"
   sodipodi:docname="summerheading.svg"><metadata
     id="metadata3042"><rdf:RDF><cc:Work
         rdf:about=""><dc:format>image/svg+xml</dc:format><dc:type
           rdf:resource="http://purl.org/dc/dcmitype/StillImage" /><dc:title /></cc:Work></rdf:RDF></metadata><defs
     id="defs3040" /><sodipodi:namedview
     pagecolor="#ffffff"
     bordercolor="#666666"
     borderopacity="1"
     objecttolerance="10"
     gridtolerance="10"
     guidetolerance="10"
     inkscape:pageopacity="0"
     inkscape:pageshadow="2"
     inkscape:window-width="634"
     inkscape:window-height="459"
     id="namedview3038"
     showgrid="false"
     inkscape:zoom="3.2934585"
     inkscape:cx="28.346458"
     inkscape:cy="25.334644"
     inkscape:window-x="365"
     inkscape:window-y="166"
     inkscape:window-maximized="0"
     inkscape:current-layer="g3044"
     units="mm" /><g
     id="g3044"
     inkscape:groupmode="layer"
     inkscape:label="summerheading"
     transform="matrix(1.25,0,0,-1.25,0,63.779526)"><g
       id="g3046"
       transform="matrix(1.3294683,0,0,1.3294683,-2.2589367,-2.0635348)"><path
         d="m 7.746,38.746 c -1.32,0.043 -2.129,-0.859 -2.316,-1.968 0.875,-0.696 0.777,-1.645 1.39,-2.551 0.325,-0.102 0.434,0.015 0.559,0.117 0.047,-0.09 0.101,-0.18 0.164,-0.27 0.324,-0.097 0.434,0.012 0.559,0.114 C 8.133,34.133 8.164,34.074 8.199,34.016 7.059,34.071 6.586,33.461 6.125,32.84 6.484,31.809 7.406,30.973 8.328,30.864 7.922,30.766 8.324,30.403 8.098,30.051 8.227,29.879 8.602,29.746 8.871,29.844 8.902,29.813 8.941,29.789 8.988,29.762 8.77,29.762 8.566,29.742 8.379,29.692 8.367,29.707 8.352,29.715 8.336,29.727 8.086,29.735 7.855,29.711 7.645,29.657 7.629,29.672 7.617,29.68 7.602,29.692 7.352,29.699 7.121,29.676 6.91,29.621 6.895,29.637 6.879,29.645 6.863,29.657 6.613,29.664 6.387,29.641 6.172,29.586 6.16,29.598 6.145,29.61 6.129,29.621 5.879,29.629 5.645,29.606 5.434,29.551 5.422,29.563 5.41,29.574 5.395,29.586 5.145,29.594 4.91,29.571 4.699,29.516 4.684,29.528 4.672,29.539 4.656,29.551 4.348,29.559 4.066,29.516 3.812,29.43 2.793,29.258 2.164,28.461 2,27.5 2.875,26.805 2.777,25.856 3.391,24.949 3.645,24.871 3.766,24.926 3.863,25 3.895,24.996 3.922,24.992 3.945,24.992 3.992,24.907 4.043,24.821 4.102,24.735 4.145,24.723 4.188,24.711 4.223,24.703 3.465,24.571 3.074,24.067 2.695,23.555 3.055,22.528 3.98,21.696 4.902,21.586 4.496,21.489 4.895,21.121 4.668,20.77 4.789,20.61 5.125,20.485 5.391,20.547 5.516,20.395 5.836,20.274 6.094,20.336 6.109,20.317 6.129,20.293 6.152,20.274 6.035,20.266 5.938,20.239 5.863,20.192 5.699,20.188 5.566,20.153 5.477,20.074 c -0.004,-0.16 0.058,-0.25 0.121,-0.343 0.164,-0.02 0.254,0.031 0.304,0.125 0.012,-0.012 0.024,-0.028 0.032,-0.043 0.117,-0.012 0.195,0.004 0.254,0.051 C 6.184,19.766 6.207,19.696 6.238,19.633 6.074,19.629 5.918,19.614 5.77,19.582 5.621,19.598 5.492,19.571 5.375,19.504 5.078,19.512 4.84,19.324 4.703,19.043 4.285,18.68 4.016,18.16 3.918,17.586 4.02,17.504 4.105,17.418 4.184,17.332 3.465,16.766 4.059,15.949 4.32,14.977 4.566,14.864 4.801,14.797 5.027,14.762 5.203,14.68 5.375,14.625 5.543,14.586 5.523,14.571 5.5,14.559 5.477,14.543 5.473,14.539 5.469,14.535 5.465,14.532 5.457,14.528 5.453,14.524 5.445,14.52 5.105,14.293 4.855,13.969 4.613,13.641 4.969,12.625 5.875,11.801 6.785,11.676 6.777,11.668 6.773,11.66 6.766,11.653 6.457,11.535 6.801,11.188 6.586,10.856 6.723,10.668 7.156,10.528 7.426,10.68 7.617,10.547 7.938,10.481 8.156,10.598 8.348,10.469 8.668,10.395 8.891,10.516 8.934,10.481 8.984,10.457 9.043,10.434 9.02,10.422 8.992,10.407 8.973,10.391 8.969,10.258 9.008,10.172 9.059,10.094 8.98,10.074 8.914,10.047 8.863,10 8.859,9.926 8.871,9.867 8.891,9.813 8.672,9.824 8.484,9.739 8.344,9.582 8.336,9.66 8.316,9.723 8.246,9.735 c 0,0 -0.004,0 -0.004,0 C 7.988,9.782 7.773,9.68 7.613,9.504 7.605,9.582 7.582,9.649 7.508,9.66 7.293,9.696 7.105,9.633 6.957,9.504 6.496,9.242 6.309,8.422 6.688,7.754 6.5,7.68 6.352,7.598 6.234,7.512 5.316,6.942 5.961,6.09 6.238,5.059 6.652,4.871 7.031,4.809 7.391,4.824 7.645,4.758 7.895,4.735 8.129,4.746 8.383,4.676 8.625,4.653 8.863,4.66 9.117,4.594 9.355,4.571 9.59,4.582 c 0.254,-0.07 0.5,-0.09 0.734,-0.078 0.254,-0.07 0.5,-0.097 0.735,-0.086 0.253,-0.066 0.496,-0.09 0.726,-0.078 0.258,-0.07 0.5,-0.098 0.738,-0.086 0.25,-0.066 0.493,-0.09 0.727,-0.078 0.254,-0.07 0.5,-0.098 0.734,-0.086 0.254,-0.07 0.5,-0.09 0.735,-0.078 0.258,-0.07 0.5,-0.098 0.734,-0.086 0.254,-0.066 0.496,-0.09 0.727,-0.078 0.258,-0.07 0.504,-0.09 0.738,-0.082 0.25,-0.067 0.492,-0.094 0.727,-0.082 0.253,-0.07 0.5,-0.09 0.734,-0.082 0.258,-0.067 0.504,-0.094 0.738,-0.082 0.25,-0.067 0.492,-0.09 0.723,-0.082 0.258,-0.067 0.5,-0.09 0.734,-0.078 0.254,-0.067 0.496,-0.094 0.727,-0.086 0.258,-0.067 0.5,-0.09 0.738,-0.078 0.254,-0.067 0.5,-0.094 0.734,-0.086 C 23.027,3.043 23.266,3.02 23.5,3.032 23.758,2.961 24,2.938 24.234,2.946 24.488,2.879 24.73,2.86 24.961,2.867 c 0.258,-0.07 0.508,-0.093 0.746,-0.085 0.254,-0.067 0.492,-0.09 0.727,-0.079 1.125,-0.3 2.023,0.301 2.933,0.618 0.293,0.648 -0.129,0.937 -0.117,1.39 0.918,0.449 0.188,1.801 -0.195,2.379 0.074,0.012 0.144,0.024 0.218,0.039 0.254,-0.012 0.5,0.02 0.735,0.074 0.894,-0.039 1.66,0.43 2.422,0.696 0.172,0.379 0.101,0.636 0.015,0.875 -0.023,0.082 -0.054,0.164 -0.086,0.242 -0.027,0.09 -0.047,0.176 -0.043,0.277 0.52,0.254 0.504,0.805 0.329,1.336 -0.004,0.012 -0.008,0.02 -0.008,0.031 -0.004,0.008 -0.008,0.012 -0.012,0.02 -0.133,0.465 -0.41,0.93 -0.586,1.195 -0.23,-0.031 -0.406,-0.031 -0.559,-0.023 -0.054,0.09 -0.101,0.168 -0.148,0.234 -0.227,-0.027 -0.406,-0.031 -0.559,-0.027 -0.05,0.086 -0.097,0.164 -0.14,0.226 0.062,0.082 0.074,0.211 0.058,0.372 -0.015,0.003 -0.027,0 -0.039,0 0,0.046 0,0.093 -0.007,0.148 -0.2,0.012 -0.36,-0.023 -0.465,-0.117 -0.004,-0.102 0.019,-0.176 0.054,-0.242 0.012,-0.067 0.036,-0.122 0.063,-0.172 -0.082,-0.004 -0.156,-0.004 -0.227,0 -0.035,0.058 -0.07,0.109 -0.101,0.16 0,0.047 -0.004,0.094 -0.008,0.148 -0.059,0.004 -0.109,0 -0.156,-0.004 0.121,0.063 0.152,0.219 0.133,0.422 0.152,-0.011 0.3,0.02 0.406,0.117 0.051,0.231 0.027,0.395 -0.032,0.516 0,0.004 -0.003,0.004 -0.003,0.008 0,0.008 0,0.012 -0.004,0.019 -0.075,0.348 -0.407,0.438 -0.617,0.657 0.378,0.359 0.257,1.34 0.886,1.125 -0.008,0.199 0.028,0.359 0.117,0.465 -0.031,0.027 -0.054,0.054 -0.086,0.082 0.008,0.011 0.012,0.023 0.02,0.031 0.203,-0.008 0.406,0.008 0.598,0.047 0.254,-0.028 0.5,-0.012 0.734,0.035 0.258,-0.028 0.5,-0.012 0.734,0.035 0.254,-0.027 0.497,-0.008 0.735,0.035 0.254,-0.027 0.496,-0.008 0.734,0.035 0.254,-0.027 0.5,-0.008 0.735,0.035 0.253,-0.027 0.5,-0.007 0.734,0.036 0.258,-0.028 0.5,-0.008 0.738,0.035 0.254,-0.024 0.496,-0.008 0.735,0.035 0.253,-0.024 0.5,-0.008 0.734,0.035 0.254,-0.023 0.5,-0.008 0.734,0.035 0.254,-0.023 0.5,-0.008 0.739,0.035 0.253,-0.023 0.503,-0.007 0.738,0.036 0.258,-0.024 0.504,-0.012 0.738,0.031 0.258,-0.024 0.5,-0.008 0.738,0.035 0.95,-0.094 1.75,0.41 2.551,0.687 0.297,0.649 -0.129,0.942 -0.113,1.391 0.941,0.465 0.133,1.895 -0.238,2.438 -0.207,-0.028 -0.368,-0.032 -0.512,-0.028 -0.039,0.067 -0.082,0.133 -0.117,0.184 -0.246,-0.031 -0.442,-0.035 -0.602,-0.028 -0.043,0.067 -0.078,0.137 -0.113,0.192 -0.25,-0.031 -0.441,-0.035 -0.606,-0.027 -0.039,0.066 -0.078,0.136 -0.113,0.191 -0.062,-0.008 -0.125,-0.016 -0.183,-0.02 0.07,0.043 0.105,0.114 0.121,0.204 0.101,0.074 0.129,0.222 0.105,0.418 -0.199,0.011 -0.359,-0.024 -0.465,-0.114 0,-0.051 0,-0.094 0.008,-0.129 -0.039,-0.019 -0.082,-0.039 -0.113,-0.066 -0.004,-0.149 0.047,-0.234 0.101,-0.32 -0.062,0 -0.125,-0.004 -0.175,0 -0.043,0.066 -0.086,0.136 -0.121,0.191 -0.028,-0.004 -0.051,-0.008 -0.075,-0.012 0.008,0.055 0.008,0.121 0.004,0.188 0.11,0.07 0.137,0.219 0.113,0.418 0.102,0.011 0.2,0.047 0.274,0.113 0,0.004 -0.004,0.004 0,0.004 0.223,-0.109 0.547,-0.145 0.734,0.031 0.164,0.785 -0.465,0.778 -0.695,1.16 0.426,0.332 0.273,1.379 0.926,1.157 -0.008,0.203 0.023,0.363 0.113,0.468 -0.516,0.473 -0.52,0.743 -0.926,1.274 -0.195,0.023 -0.371,0.031 -0.535,0.023 -0.031,0.043 -0.062,0.09 -0.098,0.137 -0.226,0.027 -0.425,0.031 -0.609,0.012 -0.012,0.015 -0.023,0.027 -0.031,0.043 0.207,0.066 0.262,0.293 0.578,0.25 -0.039,0.464 0.207,0.644 0.117,1.16 0.156,0.008 0.25,-0.055 0.344,-0.113 0.547,0.937 -0.266,1.312 0.351,2.203 -0.652,-0.032 -0.457,0.777 -0.812,1.039 -0.168,0.004 -0.332,-0.008 -0.488,-0.032 -0.035,0.075 -0.082,0.145 -0.145,0.192 -0.199,0.008 -0.387,-0.016 -0.562,-0.051 -0.039,0.086 -0.086,0.164 -0.157,0.215 -0.199,0.008 -0.386,-0.016 -0.562,-0.051 -0.039,0.086 -0.082,0.156 -0.152,0.211 -0.204,0.004 -0.387,-0.012 -0.563,-0.047 -0.039,0.086 -0.086,0.164 -0.156,0.215 -0.199,0.004 -0.387,-0.016 -0.563,-0.051 -0.039,0.086 -0.086,0.157 -0.156,0.211 -0.199,0.004 -0.387,-0.012 -0.562,-0.047 -0.04,0.086 -0.086,0.157 -0.157,0.211 -0.199,0.004 -0.386,-0.011 -0.562,-0.047 -0.035,0.086 -0.09,0.157 -0.16,0.211 -0.2,0.004 -0.383,-0.011 -0.563,-0.047 -0.035,0.086 -0.082,0.157 -0.152,0.211 -0.203,0.004 -0.387,-0.011 -0.563,-0.046 -0.039,0.085 -0.086,0.156 -0.156,0.21 -0.199,0.004 -0.387,-0.011 -0.562,-0.046 -0.04,0.086 -0.086,0.156 -0.157,0.211 -0.199,0.003 -0.386,-0.012 -0.562,-0.047 -0.035,0.086 -0.082,0.156 -0.153,0.207 -0.203,0.007 -0.386,-0.008 -0.562,-0.043 -0.039,0.086 -0.086,0.156 -0.156,0.207 -0.2,0.008 -0.387,-0.008 -0.563,-0.043 -0.039,0.082 -0.086,0.156 -0.156,0.207 -0.199,0.008 -0.387,-0.008 -0.563,-0.043 -0.039,0.082 -0.089,0.156 -0.16,0.207 -0.199,0.008 -0.383,-0.008 -0.558,-0.043 -0.035,0.082 -0.09,0.156 -0.157,0.207 -0.203,0.008 -0.386,-0.012 -0.566,-0.047 -0.035,0.082 -0.082,0.156 -0.152,0.207 -0.203,0.008 -0.387,-0.008 -0.563,-0.043 -0.039,0.082 -0.086,0.16 -0.156,0.211 -0.199,0.008 -0.387,-0.012 -0.563,-0.047 -0.039,0.082 -0.085,0.156 -0.156,0.207 -0.199,0.008 -0.387,-0.008 -0.562,-0.043 -0.035,0.082 -0.082,0.156 -0.153,0.207 -0.199,0.008 -0.39,-0.011 -0.562,-0.043 -0.039,0.082 -0.086,0.157 -0.156,0.207 -0.2,0.008 -0.387,-0.011 -0.563,-0.043 -0.039,0.082 -0.086,0.157 -0.156,0.207 -0.199,0.008 -0.387,-0.011 -0.563,-0.043 -0.039,0.082 -0.09,0.157 -0.16,0.207 -0.199,0.008 -0.383,-0.011 -0.558,-0.043 -0.036,0.083 -0.09,0.157 -0.157,0.208 -0.203,0.007 -0.386,-0.016 -0.566,-0.051 -0.035,0.086 -0.082,0.156 -0.152,0.211 -0.204,0.004 -0.387,-0.012 -0.563,-0.047 -0.039,0.086 -0.086,0.156 -0.156,0.211 -0.199,0.004 -0.387,-0.012 -0.563,-0.047 -0.039,0.086 -0.086,0.156 -0.156,0.211 -0.199,0.004 -0.387,-0.012 -0.562,-0.047 -0.036,0.086 -0.082,0.156 -0.153,0.211 -0.199,0.004 -0.39,-0.012 -0.562,-0.047 -0.039,0.082 -0.086,0.156 -0.156,0.211 -0.2,0.004 -0.387,-0.012 -0.563,-0.047 -0.039,0.082 -0.09,0.156 -0.16,0.211 -0.199,0.004 -0.387,-0.016 -0.563,-0.051 -0.039,0.086 -0.086,0.156 -0.156,0.207 -0.199,0.008 -0.387,-0.008 -0.562,-0.043 -0.039,0.082 -0.086,0.157 -0.153,0.207 -0.203,0.008 -0.386,-0.008 -0.566,-0.043 -0.035,0.082 -0.082,0.157 -0.153,0.207 -0.203,0.008 -0.386,-0.007 -0.562,-0.043 -0.039,0.082 -0.086,0.157 -0.156,0.207 -0.199,0.008 -0.387,-0.015 -0.563,-0.046 -0.039,0.082 -0.086,0.156 -0.156,0.207 -0.199,0.007 -0.387,-0.012 -0.563,-0.043 -0.035,0.082 -0.089,0.156 -0.16,0.207 -0.199,0.007 -0.382,-0.008 -0.562,-0.043 -0.035,0.082 -0.086,0.156 -0.152,0.207 -0.204,0.008 -0.387,-0.016 -0.563,-0.047 -0.039,0.082 -0.086,0.156 -0.156,0.207 -0.199,0.004 -0.387,-0.012 -0.563,-0.043 -0.039,0.082 -0.086,0.156 -0.156,0.207 -0.199,0.004 -0.387,-0.012 -0.562,-0.047 -0.036,0.086 -0.086,0.156 -0.153,0.207 -0.199,0.004 -0.39,-0.012 -0.566,-0.047 -0.035,0.086 -0.082,0.156 -0.153,0.211 -0.203,0.004 -0.39,-0.012 -0.566,-0.047 -0.039,0.082 -0.086,0.153 -0.156,0.203 -0.199,0.008 -0.387,-0.007 -0.563,-0.043 -0.039,0.082 -0.086,0.157 -0.156,0.207 -0.199,0.008 -0.387,-0.011 -0.563,-0.046 -0.039,0.082 -0.085,0.156 -0.156,0.207 C 9.711,38.285 9.52,38.27 9.344,38.235 9.309,38.317 9.254,38.387 9.188,38.438 8.984,38.446 8.801,38.43 8.625,38.395 8.586,38.473 8.535,38.543 8.469,38.594 8.266,38.598 8.078,38.578 7.902,38.543 7.863,38.625 7.816,38.696 7.746,38.746 z M 8.246,9.735 C 8.484,9.707 8.578,9.817 8.598,10.008 8.703,10.082 8.73,10.231 8.707,10.43 8.508,10.442 8.344,10.407 8.242,10.317 8.238,10.254 8.25,10.199 8.266,10.157 8.215,10.137 8.168,10.114 8.133,10.078 8.125,9.918 8.184,9.828 8.246,9.735 z m 0.566,24.297 c 0.032,-0.059 0.063,-0.114 0.098,-0.168 -0.133,0.003 -0.25,0.003 -0.367,-0.008 -0.004,0.008 -0.012,0.015 -0.016,0.023 0.133,0.012 0.207,0.086 0.285,0.153 z m 0.723,-0.161 c 0.031,-0.054 0.059,-0.109 0.094,-0.164 -0.129,0.004 -0.25,0.004 -0.363,-0.004 -0.004,0.004 -0.008,0.016 -0.012,0.02 0.129,0.016 0.203,0.082 0.281,0.148 z m 0.719,-0.164 c 0.027,-0.054 0.058,-0.105 0.094,-0.16 -0.129,0.004 -0.246,0 -0.356,-0.008 -0.004,0.004 -0.008,0.016 -0.012,0.02 0.122,0.019 0.196,0.086 0.274,0.148 z m 0.719,-0.16 c 0.027,-0.055 0.062,-0.109 0.097,-0.164 -0.129,0.008 -0.246,0.008 -0.359,-0.004 -0.004,0.008 -0.008,0.016 -0.016,0.024 0.125,0.015 0.2,0.082 0.278,0.144 z m 0.715,-0.16 c 0.031,-0.055 0.062,-0.109 0.093,-0.164 -0.125,0.008 -0.242,0.008 -0.355,-0.004 -0.004,0.008 -0.008,0.016 -0.012,0.023 0.125,0.016 0.199,0.082 0.274,0.145 z m 0.722,-0.164 c 0.031,-0.051 0.063,-0.106 0.094,-0.16 -0.129,0.008 -0.246,0.004 -0.359,-0.008 -0.004,0.008 -0.008,0.016 -0.012,0.023 0.125,0.016 0.199,0.082 0.277,0.145 z m 0.719,-0.16 c 0.027,-0.055 0.059,-0.11 0.094,-0.164 -0.125,0.008 -0.246,0.008 -0.356,-0.004 -0.004,0.008 -0.008,0.015 -0.012,0.023 0.122,0.016 0.196,0.082 0.274,0.145 z m 0.719,-0.164 c 0.027,-0.051 0.058,-0.106 0.093,-0.157 -0.129,0.004 -0.246,0 -0.355,-0.011 -0.004,0.008 -0.008,0.015 -0.016,0.023 0.125,0.016 0.2,0.082 0.278,0.145 z m 0.714,-0.164 c 0.032,-0.051 0.063,-0.106 0.094,-0.157 -0.129,0.004 -0.246,0.004 -0.359,-0.007 -0.004,0.007 -0.008,0.015 -0.012,0.019 0.125,0.016 0.203,0.082 0.277,0.145 z m 0.719,-0.157 c 0.031,-0.054 0.063,-0.109 0.094,-0.164 -0.125,0.004 -0.242,0.004 -0.352,-0.004 -0.003,0.004 -0.011,0.012 -0.015,0.02 0.125,0.016 0.195,0.082 0.273,0.148 z M 16,32.414 c 0.027,-0.054 0.059,-0.109 0.094,-0.16 -0.125,0.004 -0.242,0 -0.352,-0.008 -0.004,0.004 -0.012,0.012 -0.015,0.02 0.121,0.016 0.195,0.082 0.273,0.148 z m 0.723,-0.164 c 0.027,-0.054 0.058,-0.105 0.093,-0.16 -0.128,0.004 -0.246,0.004 -0.355,-0.004 -0.004,0.004 -0.008,0.012 -0.016,0.016 0.125,0.019 0.2,0.086 0.278,0.148 z m 0.718,-0.16 c 0.028,-0.055 0.059,-0.109 0.09,-0.164 -0.125,0.004 -0.242,0.004 -0.351,-0.004 -0.008,0.008 -0.012,0.016 -0.016,0.02 0.125,0.019 0.199,0.086 0.277,0.148 z m 0.715,-0.164 c 0.028,-0.055 0.059,-0.109 0.09,-0.16 -0.125,0.004 -0.238,0 -0.351,-0.008 -0.004,0.008 -0.008,0.016 -0.012,0.02 0.121,0.019 0.199,0.086 0.273,0.148 z m 0.719,-0.164 c 0.027,-0.055 0.059,-0.105 0.094,-0.16 -0.125,0.008 -0.242,0 -0.352,-0.008 -0.004,0.008 -0.012,0.016 -0.015,0.023 0.121,0.016 0.195,0.082 0.273,0.145 z m 0.719,-0.164 c 0.027,-0.055 0.058,-0.106 0.094,-0.16 -0.126,0.008 -0.243,0.004 -0.352,-0.004 -0.004,0.004 -0.008,0.012 -0.012,0.019 0.121,0.016 0.192,0.082 0.27,0.145 z m 0.715,-0.164 c 0.031,-0.055 0.062,-0.106 0.093,-0.16 -0.125,0.008 -0.238,0.008 -0.347,-0.004 -0.008,0.008 -0.016,0.015 -0.02,0.023 0.125,0.016 0.199,0.078 0.274,0.141 z m 0.718,-0.164 c 0.028,-0.051 0.063,-0.102 0.094,-0.156 -0.125,0.007 -0.242,0.003 -0.351,-0.008 -0.004,0.008 -0.008,0.015 -0.012,0.023 0.121,0.016 0.195,0.078 0.269,0.141 z m 0.723,-0.16 c 0.027,-0.051 0.059,-0.106 0.09,-0.161 -0.125,0.008 -0.242,0.004 -0.352,-0.007 -0.004,0.007 -0.008,0.015 -0.011,0.023 0.121,0.016 0.195,0.082 0.273,0.145 z m 0.719,-0.164 c 0.027,-0.051 0.058,-0.106 0.093,-0.161 -0.128,0.008 -0.246,0.008 -0.355,-0.003 -0.004,0.007 -0.008,0.011 -0.016,0.019 0.125,0.016 0.2,0.082 0.278,0.145 z M 8.633,30.809 C 8.77,30.762 8.91,30.727 9.047,30.711 8.961,30.692 8.91,30.653 8.883,30.61 c -0.071,0.078 -0.16,0.136 -0.25,0.199 z m 14.555,-0.027 c 0.027,-0.051 0.058,-0.106 0.089,-0.161 -0.125,0.008 -0.242,0.008 -0.351,-0.004 -0.004,0.008 -0.012,0.012 -0.016,0.02 0.125,0.016 0.199,0.082 0.278,0.145 z M 9.352,30.653 C 9.488,30.606 9.625,30.571 9.766,30.551 9.676,30.532 9.629,30.5 9.602,30.453 c -0.075,0.079 -0.164,0.137 -0.25,0.2 z m 14.55,-0.036 c 0.028,-0.05 0.059,-0.101 0.09,-0.152 -0.008,-0.004 -0.015,-0.004 -0.023,-0.004 -0.059,0 -0.117,0.004 -0.172,0.004 -0.004,0 -0.008,0 -0.008,0.004 -0.051,0 -0.101,-0.004 -0.152,-0.004 0,0 0,0.004 -0.004,0.008 0.121,0.016 0.195,0.082 0.269,0.144 z M 10.086,30.489 c 0.133,-0.043 0.269,-0.079 0.402,-0.098 -0.086,-0.02 -0.136,-0.051 -0.164,-0.09 -0.07,0.074 -0.156,0.129 -0.238,0.188 z m 0.734,-0.168 c 0.129,-0.043 0.258,-0.071 0.387,-0.086 -0.086,-0.024 -0.133,-0.055 -0.16,-0.098 -0.067,0.07 -0.145,0.129 -0.227,0.184 z m 0.715,-0.157 c 0.129,-0.047 0.258,-0.074 0.387,-0.09 -0.086,-0.019 -0.133,-0.058 -0.156,-0.101 -0.071,0.07 -0.149,0.133 -0.231,0.191 z m 0.707,-0.156 c 0.086,-0.031 0.172,-0.055 0.258,-0.07 -0.047,-0.004 -0.094,-0.008 -0.141,-0.016 -0.039,0.031 -0.078,0.059 -0.117,0.086 z m 27.449,-3.109 c 0.008,-0.012 0.016,-0.024 0.024,-0.035 -0.024,0 -0.047,0.003 -0.07,0.003 0.015,0.012 0.031,0.02 0.046,0.032 z M 28.852,26.203 c 0.062,-0.011 0.113,-0.019 0.16,-0.015 0.05,-0.012 0.101,-0.016 0.156,-0.02 -0.086,-0.023 -0.133,-0.054 -0.16,-0.094 -0.047,0.047 -0.102,0.086 -0.156,0.129 z m -4.606,-0.046 c 0.016,-0.028 0.035,-0.055 0.051,-0.083 -0.121,-0.011 -0.223,-0.046 -0.297,-0.113 -0.004,-0.094 0.016,-0.164 0.047,-0.226 -0.156,0 -0.293,-0.016 -0.422,-0.043 -0.211,0.019 -0.398,0.011 -0.566,-0.008 -0.028,0.039 -0.055,0.086 -0.079,0.121 -0.246,-0.035 -0.437,-0.039 -0.597,-0.027 -0.02,0.035 -0.039,0.066 -0.063,0.097 0.157,-0.008 0.246,0.051 0.328,0.117 0.012,-0.015 0.02,-0.035 0.032,-0.05 0.07,-0.008 0.125,-0.004 0.172,0.011 0.003,-0.004 0.007,-0.004 0.011,-0.007 0.223,-0.071 0.344,-0.036 0.438,0.027 0.023,-0.074 0.058,-0.133 0.097,-0.191 0.188,-0.024 0.29,0.042 0.332,0.167 0.282,-0.042 0.364,0.118 0.516,0.208 z m 0.664,-0.012 c 0.039,-0.016 0.082,-0.028 0.121,-0.035 0.016,-0.02 0.024,-0.039 0.039,-0.059 0.196,-0.062 0.317,-0.043 0.407,0.004 0.168,-0.106 0.425,-0.164 0.628,-0.098 0.047,-0.043 0.118,-0.082 0.192,-0.113 -0.172,0 -0.328,-0.02 -0.473,-0.051 -0.238,0.02 -0.449,0.016 -0.636,-0.015 0,0.043 0,0.089 -0.004,0.14 -0.204,0.012 -0.364,-0.027 -0.465,-0.121 0,-0.012 0.004,-0.019 0.004,-0.031 -0.106,-0.004 -0.203,-0.012 -0.297,-0.031 0.035,0.066 0.047,0.148 0.043,0.25 0.234,-0.036 0.328,0.07 0.441,0.16 z m 4.606,-0.063 c 0.097,-0.031 0.199,-0.05 0.296,-0.066 -0.062,-0.004 -0.124,-0.012 -0.183,-0.024 -0.039,0.032 -0.074,0.063 -0.113,0.09 z m -7.481,-0.031 c 0.02,-0.035 0.039,-0.066 0.063,-0.102 -0.082,-0.007 -0.149,-0.007 -0.219,-0.007 0.051,0.039 0.098,0.074 0.156,0.109 z M 4.629,24.824 c 0.004,-0.007 0.008,-0.015 0.012,-0.023 -0.02,0 -0.036,-0.004 -0.055,-0.008 0.016,0.012 0.027,0.02 0.043,0.031 z m 35.945,-1.261 c 0.028,-0.008 0.055,-0.012 0.086,-0.016 -0.023,-0.004 -0.047,-0.015 -0.062,-0.019 -0.008,0.007 -0.016,0.023 -0.024,0.035 z m 0.465,-0.121 c 0.086,-0.024 0.168,-0.043 0.254,-0.055 -0.055,-0.012 -0.098,-0.027 -0.125,-0.047 -0.039,0.035 -0.082,0.07 -0.129,0.102 z m -4.137,-0.004 c 0.231,-0.117 0.469,-0.196 0.707,-0.223 -0.191,-0.043 -0.199,-0.152 -0.179,-0.289 -0.012,0.012 -0.024,0.02 -0.032,0.027 0.004,0.055 0.004,0.118 -0.003,0.184 -0.079,0.004 -0.149,0 -0.215,-0.012 -0.114,0.082 -0.231,0.164 -0.305,0.285 0.012,0.008 0.02,0.02 0.027,0.028 z m -0.734,-0.035 c 0.086,-0.047 0.176,-0.082 0.266,-0.118 -0.063,-0.011 -0.114,-0.035 -0.161,-0.062 -0.05,0.047 -0.097,0.094 -0.132,0.152 0.007,0.008 0.015,0.02 0.027,0.028 z M 35.43,23.367 c 0.023,-0.011 0.043,-0.023 0.062,-0.031 0,-0.047 0.004,-0.086 0.016,-0.125 -0.039,0.039 -0.074,0.082 -0.106,0.129 0.012,0.008 0.02,0.02 0.028,0.027 z m -0.735,-0.035 c 0.043,-0.023 0.09,-0.043 0.133,-0.062 0.02,-0.035 0.039,-0.074 0.063,-0.106 0.078,-0.011 0.136,-0.004 0.187,0.016 0.106,-0.031 0.219,-0.059 0.324,-0.07 -0.109,-0.028 -0.156,-0.075 -0.175,-0.133 -0.012,0.015 -0.024,0.039 -0.036,0.055 -0.07,-0.012 -0.132,-0.02 -0.195,-0.024 -0.121,0.086 -0.25,0.168 -0.328,0.297 0.012,0.008 0.02,0.019 0.027,0.027 z m -0.734,-0.035 c 0.101,-0.055 0.203,-0.094 0.305,-0.129 -0.094,-0.008 -0.176,0 -0.254,0 -0.028,0.031 -0.055,0.063 -0.078,0.102 0.007,0.008 0.015,0.019 0.027,0.027 z m 2.719,-0.086 c 0.066,-0.015 0.129,-0.023 0.195,-0.031 -0.191,-0.043 -0.199,-0.152 -0.18,-0.289 -0.019,0.019 -0.043,0.043 -0.062,0.058 0.035,0.067 0.051,0.157 0.047,0.262 z m 1.187,-0.015 c 0.102,-0.036 0.211,-0.047 0.321,-0.039 -0.036,-0.051 -0.032,-0.118 -0.024,-0.192 -0.086,0.086 -0.195,0.156 -0.297,0.231 z M 35.941,23.18 c 0.067,-0.016 0.133,-0.027 0.2,-0.035 -0.192,-0.047 -0.2,-0.153 -0.184,-0.289 -0.055,0.058 -0.117,0.109 -0.184,0.156 0.09,0.023 0.141,0.082 0.168,0.168 z m -1.41,-0.078 c 0.047,-0.012 0.09,-0.024 0.137,-0.028 -0.039,-0.011 -0.07,-0.023 -0.098,-0.039 -0.011,0.024 -0.023,0.043 -0.039,0.067 z m 5.985,-0.707 c 0.086,-0.043 0.187,-0.071 0.289,-0.082 -0.117,-0.016 -0.215,-0.047 -0.285,-0.106 -0.004,-0.133 0.035,-0.218 0.082,-0.297 -0.082,-0.019 -0.153,-0.05 -0.204,-0.097 -0.003,-0.047 0.004,-0.086 0.012,-0.121 -0.023,0 -0.047,0 -0.07,0 -0.043,0.066 -0.086,0.136 -0.121,0.191 -0.031,-0.004 -0.063,-0.008 -0.09,-0.008 -0.004,0.004 0,0.012 0,0.02 -0.129,0.008 -0.234,-0.008 -0.324,-0.039 -0.063,0 -0.129,-0.004 -0.184,0 -0.043,0.066 -0.082,0.136 -0.117,0.191 -0.25,-0.031 -0.442,-0.035 -0.602,-0.027 -0.039,0.066 -0.082,0.133 -0.117,0.187 0.098,0.012 0.188,0.047 0.258,0.114 0,0 0,0.003 0,0.003 0.031,-0.015 0.066,-0.031 0.102,-0.042 0.015,-0.036 0.035,-0.067 0.054,-0.098 0.121,-0.016 0.203,0.004 0.258,0.055 0.121,0.003 0.234,0.035 0.32,0.117 0,0.004 0,0.008 0,0.008 0.008,-0.004 0.016,-0.008 0.028,-0.012 -0.004,-0.153 0.054,-0.242 0.113,-0.332 0.23,-0.028 0.332,0.078 0.352,0.262 0.089,0.015 0.179,0.046 0.246,0.109 0,0.004 0,0.004 0,0.004 z m -2.211,-0.106 c 0.105,-0.05 0.238,-0.09 0.363,-0.093 -0.191,-0.02 -0.348,-0.02 -0.48,-0.012 -0.004,0.008 -0.008,0.015 -0.016,0.023 0.051,0.02 0.094,0.047 0.133,0.082 z M 13.801,22.082 c 0.015,-0.031 0.031,-0.058 0.047,-0.09 -0.063,0 -0.121,0 -0.18,-0.003 0.051,0.023 0.094,0.058 0.133,0.093 z m 28.39,-0.086 c -0.132,-0.007 -0.242,-0.047 -0.32,-0.113 -0.004,-0.16 0.055,-0.254 0.117,-0.348 0.305,-0.035 0.379,0.161 0.344,0.461 -0.051,0.004 -0.094,0.004 -0.141,0 z M 16.504,21.153 c 0.012,-0.004 0.019,0 0.027,0 -0.015,0 -0.027,-0.004 -0.043,-0.004 0.004,0 0.012,0 0.016,0.004 z m 0.824,-0.125 c 0.016,-0.032 0.031,-0.059 0.051,-0.09 -0.067,0.004 -0.129,0 -0.188,-0.004 0.051,0.023 0.094,0.058 0.137,0.094 z M 7.477,20.785 C 7.543,20.758 7.617,20.739 7.691,20.731 7.648,20.715 7.609,20.699 7.586,20.676 7.551,20.715 7.516,20.75 7.477,20.785 z M 8.168,20.578 C 8.254,20.559 8.34,20.535 8.43,20.528 8.363,20.512 8.324,20.489 8.297,20.461 8.258,20.504 8.215,20.543 8.168,20.578 z M 6.285,20.199 c 0.078,-0.039 0.172,-0.07 0.27,-0.082 0.004,-0.05 0.023,-0.097 0.039,-0.136 -0.168,0.004 -0.305,-0.028 -0.399,-0.106 0.071,0.067 0.094,0.18 0.09,0.324 z m 0.703,-0.214 c 0.117,-0.055 0.266,-0.09 0.403,-0.082 0.004,-0.008 0.011,-0.012 0.015,-0.02 0.051,-0.004 0.09,-0.004 0.129,0 0.039,-0.039 0.09,-0.074 0.149,-0.105 -0.114,0 -0.223,-0.012 -0.329,-0.028 0,0.008 0,0.012 0,0.02 -0.156,0.008 -0.285,-0.012 -0.382,-0.063 -0.121,0 -0.235,-0.011 -0.344,-0.027 0.019,0.055 0.027,0.117 0.027,0.191 0.004,-0.007 0.008,-0.015 0.012,-0.023 0.176,-0.02 0.273,0.035 0.32,0.137 z m 19.782,-5.95 c 0,0 0.003,0 0.003,0 0.223,-0.109 0.45,-0.183 0.68,-0.211 -0.207,-0.05 -0.211,-0.167 -0.187,-0.32 -0.047,0.047 -0.098,0.09 -0.149,0.129 0.008,0.066 0.008,0.141 0,0.227 -0.105,0.004 -0.195,0 -0.277,-0.024 -0.047,0.043 -0.09,0.09 -0.125,0.149 0.019,0.011 0.039,0.035 0.055,0.05 z m -0.368,-0.218 c 0.09,-0.028 0.184,-0.047 0.274,-0.059 -0.008,-0.008 -0.016,-0.008 -0.02,-0.016 0,-0.003 0,-0.007 0,-0.011 -0.148,-0.059 -0.136,-0.172 -0.117,-0.309 -0.039,0.039 -0.082,0.074 -0.129,0.11 -0.008,0.011 -0.015,0.023 -0.019,0.035 -0.008,0 -0.012,0 -0.02,0 -0.031,0.023 -0.066,0.047 -0.098,0.07 0.071,0.035 0.11,0.094 0.129,0.176 l 0,0.004 z m 1.567,-0.024 C 27.98,13.782 27.992,13.77 28,13.762 c -0.016,-0.055 -0.004,-0.117 0.004,-0.191 -0.078,0.086 -0.176,0.148 -0.274,0.218 0.082,-0.011 0.165,-0.015 0.239,0.004 z m 1.648,-0.711 c 0.063,-0.027 0.133,-0.054 0.203,-0.07 -0.144,-0.008 -0.261,-0.039 -0.343,-0.109 -0.004,-0.161 0.054,-0.258 0.113,-0.352 0.023,0 0.043,-0.004 0.062,-0.004 -0.05,-0.015 -0.097,-0.035 -0.136,-0.066 -0.055,0 -0.106,0.004 -0.153,0.004 -0.054,0.089 -0.105,0.172 -0.148,0.234 -0.227,-0.027 -0.406,-0.031 -0.559,-0.023 -0.035,0.058 -0.062,0.109 -0.097,0.156 0.089,0.004 0.171,0.023 0.246,0.062 0.019,-0.054 0.05,-0.101 0.082,-0.148 0.183,-0.024 0.285,0.039 0.328,0.16 0.148,-0.012 0.297,0.023 0.398,0.121 0.004,0.016 0.004,0.024 0.004,0.035 z m -1.465,-0.148 c 0.02,-0.012 0.043,-0.02 0.067,-0.027 -0.024,0 -0.047,0 -0.071,0 0,0.007 0,0.015 0.004,0.027 z M 7.312,11.633 c 0.051,-0.012 0.106,-0.023 0.161,-0.035 0,-0.012 0.004,-0.024 0.004,-0.035 -0.016,-0.004 -0.028,-0.012 -0.039,-0.02 -0.04,0.031 -0.083,0.063 -0.126,0.09 z m 4.735,-0.434 c 0.207,-0.093 0.418,-0.16 0.629,-0.183 -0.125,-0.031 -0.176,-0.086 -0.188,-0.16 -0.133,0.129 -0.308,0.215 -0.441,0.343 z m -0.594,-0.031 c 0.082,-0.019 0.168,-0.027 0.25,-0.023 0.078,-0.024 0.156,-0.035 0.238,-0.047 -0.125,-0.027 -0.171,-0.086 -0.187,-0.16 -0.086,0.09 -0.195,0.156 -0.301,0.23 z m 1.332,-0.051 c 0.203,-0.093 0.414,-0.156 0.621,-0.183 -0.129,-0.027 -0.172,-0.086 -0.183,-0.164 -0.129,0.133 -0.305,0.219 -0.438,0.347 z m -1.738,-0.039 c -0.012,-0.019 -0.02,-0.039 -0.024,-0.058 -0.015,0.019 -0.035,0.035 -0.054,0.051 0.023,0.003 0.051,0 0.078,0.007 z m 2.465,-0.043 c 0.07,-0.031 0.144,-0.062 0.218,-0.086 -0.035,-0.003 -0.07,-0.003 -0.101,-0.011 -0.039,0.031 -0.082,0.062 -0.117,0.097 z m 0.324,-0.121 c 0.09,-0.027 0.184,-0.047 0.273,-0.058 0,-0.004 0,-0.008 0,-0.016 -0.101,-0.031 -0.144,-0.082 -0.156,-0.148 -0.035,0.035 -0.074,0.062 -0.117,0.093 0.004,0.039 0.004,0.082 0,0.129 z m 0.738,-0.082 c 0.098,-0.027 0.196,-0.05 0.297,-0.062 -0.129,-0.028 -0.176,-0.086 -0.187,-0.156 -0.039,0.039 -0.086,0.074 -0.133,0.109 0.011,0.031 0.019,0.07 0.023,0.109 z m 0.692,-0.07 c 0.109,-0.035 0.226,-0.059 0.339,-0.07 -0.125,-0.032 -0.175,-0.09 -0.191,-0.164 -0.059,0.062 -0.133,0.113 -0.203,0.164 0.023,0.019 0.039,0.043 0.055,0.07 z m 0.609,-0.039 c 0.152,-0.059 0.309,-0.098 0.461,-0.117 -0.055,-0.012 -0.09,-0.032 -0.121,-0.051 -0.063,0.004 -0.125,0.004 -0.184,-0.012 -0.074,0.059 -0.148,0.11 -0.222,0.164 0.023,0.004 0.046,0.008 0.066,0.016 z m 0.563,-0.016 c 0.093,-0.043 0.187,-0.074 0.281,-0.105 -0.031,-0.008 -0.067,-0.02 -0.094,-0.035 -0.066,0.047 -0.133,0.09 -0.187,0.14 z m 0.73,-0.078 c 0.035,-0.015 0.066,-0.031 0.098,-0.043 -0.008,-0.008 -0.012,-0.012 -0.02,-0.019 -0.027,0.019 -0.055,0.039 -0.078,0.062 z M 9.621,10.434 c 0.027,-0.02 0.059,-0.035 0.094,-0.051 0.012,-0.113 0.058,-0.191 0.109,-0.269 0.196,-0.02 0.293,0.05 0.332,0.183 0.071,0.008 0.141,0.024 0.199,0.059 0.043,-0.032 0.094,-0.059 0.153,-0.082 0.015,-0.028 0.027,-0.059 0.047,-0.086 0.086,-0.012 0.156,0 0.207,0.023 0.113,-0.008 0.23,0.008 0.324,0.059 0.187,-0.129 0.516,-0.203 0.734,-0.078 0.086,-0.059 0.192,-0.11 0.309,-0.133 C 12.086,10.028 12.043,9.992 12.008,9.953 12,10.028 11.98,10.09 11.906,10.102 11.652,10.149 11.438,10.055 11.277,9.875 11.27,9.953 11.25,10.02 11.176,10.032 11.008,10.063 10.852,10.028 10.723,9.953 10.641,9.949 10.566,9.942 10.5,9.926 10.488,9.942 10.465,9.953 10.441,9.957 10.301,9.981 10.176,9.961 10.062,9.91 c 0,0.039 0,0.079 -0.003,0.122 -0.204,0.011 -0.364,-0.024 -0.465,-0.118 0,-0.007 0,-0.015 0,-0.023 -0.102,0 -0.196,-0.016 -0.282,-0.055 0.024,0.071 0.024,0.153 0.016,0.25 0.082,0.055 0.121,0.156 0.121,0.297 0.059,0.008 0.117,0.024 0.172,0.051 z M 7.832,10.356 C 7.695,10.344 7.586,10.309 7.508,10.239 c 0,-0.004 0,-0.004 0,-0.008 C 7.465,10.211 7.426,10.192 7.395,10.164 7.391,10.004 7.453,9.907 7.516,9.813 7.66,9.797 7.75,9.836 7.805,9.907 c 0.152,0.05 0.191,0.218 0.168,0.449 -0.051,0 -0.098,0.004 -0.141,0 z"
         style="fill:#96d321;fill-opacity:1;fill-rule:evenodd;stroke:none"
         id="path3048"
         inkscape:connector-curvature="0" /><path
         d="m 10.188,22.223 1.773,0.281 -0.031,0.176 c -0.051,0.324 -0.168,0.574 -0.352,0.754 -0.183,0.18 -0.398,0.25 -0.648,0.211 -0.575,-0.09 -0.821,-0.567 -0.742,-1.422 m 3.425,-1.109 -3.269,-0.516 0.043,-0.258 c 0.179,-1.137 0.617,-1.652 1.316,-1.543 0.485,0.078 0.75,0.402 0.805,0.969 0.027,0.312 0.086,0.519 0.18,0.625 0.093,0.101 0.289,0.176 0.578,0.223 0.675,0.105 1.066,-0.18 1.172,-0.856 0.105,-0.652 -0.063,-1.238 -0.508,-1.746 -0.442,-0.512 -1.047,-0.828 -1.821,-0.949 -1.031,-0.16 -1.89,0.062 -2.574,0.676 -0.687,0.613 -1.129,1.55 -1.328,2.816 -0.219,1.375 -0.109,2.492 0.32,3.344 0.434,0.855 1.141,1.363 2.129,1.519 0.891,0.141 1.653,-0.07 2.278,-0.633 0.628,-0.558 1.027,-1.382 1.199,-2.464 0.07,-0.43 0.066,-0.731 -0.008,-0.895 -0.07,-0.164 -0.242,-0.269 -0.512,-0.312"
         style="fill:#ffffff;fill-opacity:1;fill-rule:nonzero;stroke:none"
         id="path3050"
         inkscape:connector-curvature="0" /><path
         d="m 17.555,24.063 0.566,-3.574 c 0.043,-0.27 0.156,-0.387 0.344,-0.356 0.211,0.031 0.285,0.231 0.226,0.594 l -0.14,0.902 c -0.078,0.485 0.101,0.758 0.531,0.828 0.32,0.051 0.555,-0.015 0.707,-0.203 0.149,-0.183 0.27,-0.555 0.359,-1.113 0.11,-0.711 0.118,-1.266 0.016,-1.664 -0.199,-0.781 -0.754,-1.242 -1.664,-1.387 -0.625,-0.098 -1.16,0.02 -1.609,0.356 -0.45,0.336 -0.727,0.832 -0.829,1.488 l -0.601,3.801 c -0.051,0.332 -0.176,0.484 -0.367,0.453 l -0.403,-0.063 c -0.441,-0.07 -0.703,0.157 -0.785,0.684 -0.058,0.363 -0.043,0.625 0.051,0.781 0.09,0.16 0.285,0.262 0.586,0.309 l 0.289,0.047 c 0.184,0.027 0.258,0.14 0.227,0.332 l -0.192,1.207 c -0.078,0.496 0.242,0.797 0.957,0.91 0.399,0.062 0.68,0.054 0.836,-0.031 0.156,-0.086 0.262,-0.286 0.309,-0.594 l 0.183,-1.16 c 0.032,-0.196 0.176,-0.27 0.43,-0.231 l 0.734,0.117 c 0.524,0.082 0.829,-0.172 0.922,-0.761 0.055,-0.336 0.039,-0.571 -0.043,-0.711 -0.082,-0.137 -0.246,-0.227 -0.488,-0.266 L 18.035,24.653 C 17.781,24.61 17.625,24.559 17.578,24.496 17.527,24.434 17.52,24.289 17.555,24.063"
         style="fill:#ffffff;fill-opacity:1;fill-rule:nonzero;stroke:none"
         id="path3052"
         inkscape:connector-curvature="0" /><path
         d="m 22.453,29.321 0.438,-2.762 c 0.343,0.594 0.855,0.941 1.531,1.051 0.601,0.093 1.117,-0.075 1.543,-0.504 0.426,-0.434 0.703,-1.071 0.836,-1.914 l 0.48,-3.028 c 0.071,-0.449 0.188,-0.66 0.348,-0.636 0.012,0.004 0.035,0.007 0.078,0.015 0.035,0.004 0.063,0.008 0.082,0.012 0.031,0.004 0.082,0.012 0.145,0.023 0.343,0.055 0.554,-0.175 0.636,-0.691 C 28.68,20.211 28.473,19.832 27.957,19.75 27.84,19.731 27.66,19.715 27.422,19.707 27.18,19.696 27,19.68 26.883,19.66 26.766,19.645 26.586,19.602 26.352,19.535 26.113,19.473 25.934,19.43 25.816,19.41 c -0.492,-0.078 -0.793,0.215 -0.898,0.883 -0.059,0.364 -0.004,0.61 0.156,0.735 0.164,0.125 0.215,0.359 0.16,0.703 l -0.351,2.238 c -0.094,0.578 -0.211,0.973 -0.363,1.188 -0.149,0.21 -0.364,0.296 -0.641,0.253 -0.527,-0.082 -0.699,-0.687 -0.524,-1.816 l 0.321,-2.027 c 0.039,-0.25 0.082,-0.403 0.125,-0.461 0.043,-0.059 0.144,-0.121 0.308,-0.184 0.211,-0.074 0.348,-0.316 0.411,-0.726 0.101,-0.645 -0.071,-1 -0.524,-1.071 -0.105,-0.019 -0.273,-0.031 -0.504,-0.039 -0.23,-0.012 -0.402,-0.023 -0.523,-0.043 -0.137,-0.023 -0.344,-0.066 -0.614,-0.136 -0.269,-0.071 -0.472,-0.118 -0.613,-0.141 -0.527,-0.082 -0.844,0.215 -0.949,0.891 -0.082,0.515 0.043,0.8 0.379,0.851 0.074,0.012 0.129,0.02 0.16,0.027 0.02,0.004 0.047,0.008 0.078,0.012 0.035,0.004 0.055,0.008 0.067,0.012 0.171,0.027 0.222,0.262 0.152,0.711 l -0.938,5.918 c -0.07,0.449 -0.175,0.66 -0.312,0.64 -0.012,-0.004 -0.039,-0.007 -0.082,-0.011 -0.031,-0.016 -0.059,-0.024 -0.078,-0.024 -0.086,-0.031 -0.141,-0.047 -0.176,-0.051 -0.375,-0.058 -0.609,0.2 -0.699,0.774 -0.102,0.637 0.097,0.996 0.59,1.074 0.109,0.016 0.304,0.031 0.586,0.043 0.253,0.008 0.449,0.027 0.585,0.059 l 0.618,0.179 c 0.007,0.004 0.035,0.008 0.078,0.012 0.367,0.059 0.582,-0.129 0.652,-0.562"
         style="fill:#ffffff;fill-opacity:1;fill-rule:nonzero;stroke:none"
         id="path3054"
         inkscape:connector-curvature="0" /><path
         d="m 32.965,29.399 c -0.461,-0.075 -0.777,-0.414 -0.945,-1.016 -0.168,-0.605 -0.168,-1.43 -0.004,-2.469 l 0.031,-0.211 c 0.164,-1.031 0.422,-1.82 0.777,-2.367 0.36,-0.551 0.762,-0.789 1.211,-0.719 0.945,0.149 1.246,1.332 0.895,3.543 -0.364,2.309 -1.02,3.387 -1.965,3.239 m 1.437,-9.082 c -1.183,-0.188 -2.172,0.16 -2.964,1.039 -0.793,0.883 -1.336,2.242 -1.626,4.078 -0.285,1.793 -0.179,3.226 0.309,4.308 0.492,1.079 1.324,1.711 2.508,1.895 1.137,0.18 2.105,-0.156 2.898,-1.016 0.797,-0.859 1.332,-2.144 1.602,-3.851 0.301,-1.91 0.219,-3.418 -0.246,-4.52 -0.461,-1.101 -1.289,-1.746 -2.481,-1.933"
         style="fill:#ffffff;fill-opacity:1;fill-rule:nonzero;stroke:none"
         id="path3056"
         inkscape:connector-curvature="0" /></g></g></svg>