<?xml version="1.0" encoding="UTF-8" standalone="no"?>
<!-- Created with Inkscape (http://www.inkscape.org/) -->
<svg
   xmlns:dc="http://purl.org/dc/elements/1.1/"
   xmlns:cc="http://creativecommons.org/ns#"
   xmlns:rdf="http://www.w3.org/1999/02/22-rdf-syntax-ns#"
   xmlns:svg="http://www.w3.org/2000/svg"
   xmlns="http://www.w3.org/2000/svg"
   xmlns:sodipodi="http://sodipodi.sourceforge.net/DTD/sodipodi-0.dtd"
   xmlns:inkscape="http://www.inkscape.org/namespaces/inkscape"
   width="198.42519"
   height="63.779526"
   id="svg2547"
   sodipodi:version="0.32"
   inkscape:version="0.46"
   version="1.0"
   sodipodi:docname="shadowheader.svg"
   inkscape:output_extension="org.inkscape.output.svg.inkscape">
  <defs
     id="defs2549">
    <inkscape:perspective
       sodipodi:type="inkscape:persp3d"
       inkscape:vp_x="0 : 526.18109 : 1"
       inkscape:vp_y="0 : 1000 : 0"
       inkscape:vp_z="744.09448 : 526.18109 : 1"
       inkscape:persp3d-origin="372.04724 : 350.78739 : 1"
       id="perspective2555" />
  </defs>
  <sodipodi:namedview
     id="base"
     pagecolor="#ffffff"
     bordercolor="#666666"
     borderopacity="1.0"
     gridtolerance="10000"
     guidetolerance="10"
     objecttolerance="10"
     inkscape:pageopacity="0.0"
     inkscape:pageshadow="2"
     inkscape:zoom="1.979899"
     inkscape:cx="108.89404"
     inkscape:cy="11.457432"
     inkscape:document-units="px"
     inkscape:current-layer="layer1"
     showgrid="false"
     units="mm"
     inkscape:window-width="798"
     inkscape:window-height="462"
     inkscape:window-x="0"
     inkscape:window-y="0" />
  <metadata
     id="metadata2552">
    <rdf:RDF>
      <cc:Work
         rdf:about="">
        <dc:format>image/svg+xml</dc:format>
        <dc:type
           rdf:resource="http://purl.org/dc/dcmitype/StillImage" />
      </cc:Work>
    </rdf:RDF>
  </metadata>
  <g
     inkscape:label="Layer 1"
     inkscape:groupmode="layer"
     id="layer1">
    <path
       style="font-size:medium;font-style:normal;font-variant:normal;font-weight:normal;font-stretch:normal;text-indent:0;text-align:start;text-decoration:none;line-height:normal;letter-spacing:normal;word-spacing:normal;text-transform:none;direction:ltr;block-progression:tb;writing-mode:lr-tb;text-anchor:start;fill:#000000;fill-opacity:0.09661835;fill-rule:nonzero;stroke:none;stroke-width:0.1;marker:none;visibility:visible;display:inline;overflow:visible;enable-background:accumulate;font-family:AmerType Md BT;-inkscape-font-specification:AmerType Md BT"
       d="M 172.36685,0.17741576 C 172.28113,0.17682576 172.20055,0.18335576 172.11807,0.19373576 L 172.11398,0.19373576 C 171.61889,0.25607576 171.17103,0.47381576 170.74356,0.70763576 C 170.17366,1.0193958 169.63488,1.3722358 169.07132,1.5600758 C 168.50581,1.7485858 168.27022,1.7072458 168.02313,1.6946658 C 167.77598,1.6820158 167.52497,1.7189658 167.0157,2.0372658 C 166.4996,2.3598258 166.10366,3.0131658 165.87368,3.7298958 C 165.64368,4.4466258 165.57342,5.2129958 165.70238,5.8018458 C 165.72672,5.9123558 165.74316,6.0018158 165.74316,6.0506358 C 165.74317,6.0994558 165.73564,6.1103658 165.72278,6.1240558 C 165.70998,6.1377558 165.67936,6.1506558 165.64528,6.1648358 C 165.6112,6.1789858 165.57776,6.2022358 165.53108,6.2382558 C 165.34418,6.3823358 165.10583,6.7822658 164.96414,8.2734858 C 164.92579,8.6802458 165.11839,9.3075658 165.26598,10.023216 C 165.41355,10.738876 165.51337,11.546286 165.32306,12.250156 L 165.34346,12.270546 C 165.41186,12.350476 165.49586,12.509096 165.58818,12.706966 C 165.68052,12.904816 165.77479,13.148096 165.89406,13.392176 C 166.13264,13.880306 166.43316,14.378616 166.82808,14.644306 C 166.99871,14.759146 167.08419,14.905266 167.1299,15.064406 C 167.17555,15.223536 167.17909,15.411416 167.187,15.578316 C 167.19496,15.745196 167.20184,15.901696 167.26448,16.035126 C 167.32706,16.168546 167.45678,16.276686 167.66421,16.320626 C 167.76633,16.342226 167.99485,16.372276 168.21481,16.471536 C 168.43471,16.570826 168.6261,16.720406 168.67162,16.965046 C 168.79018,18.696316 169.13661,17.835366 168.06389,21.206816 C 165.64742,22.831966 160.96223,25.795996 158.40164,28.246526 C 158.39563,28.249666 158.38427,28.243396 158.38125,28.246526 C 157.69388,28.487286 157.09137,28.707016 156.63151,28.870556 C 156.4016,28.952326 156.20165,29.029266 156.0605,29.082646 C 155.91936,29.136016 155.83325,29.173536 155.79539,29.196846 C 155.75219,29.223506 155.71501,29.216946 155.66079,29.196846 C 155.6066,29.176766 155.53745,29.124636 155.47318,29.062246 C 155.34465,28.937496 155.20675,28.747976 155.07347,28.527946 C 154.80678,28.087936 154.55679,27.555726 154.44536,27.332916 C 154.42163,27.285516 154.42831,27.231046 154.44536,27.161606 C 154.4624,27.092166 154.50697,27.023296 154.55956,26.933206 C 154.66472,26.753066 154.83161,26.531556 155.01637,26.284706 C 155.38597,25.791016 155.82747,25.165246 156.0034,24.461556 C 156.3542,23.058456 155.86246,21.710406 155.54659,20.162686 C 155.38685,19.379976 154.90131,18.513756 154.38826,17.821556 C 154.13169,17.475456 153.86341,17.175276 153.62964,16.948736 C 153.39581,16.722196 153.1846,16.551286 153.03824,16.508246 C 152.51436,16.354156 151.8224,15.744436 151.38233,15.178606 C 151.26469,15.027356 151.06524,14.930916 150.795,14.856396 C 150.52484,14.781886 150.1942,14.720556 149.84467,14.701416 C 149.14565,14.663126 148.36107,14.720226 147.78905,14.815616 C 147.20778,14.912486 146.58051,15.374666 146.09643,15.884216 C 145.85431,16.138986 145.65431,16.414566 145.50502,16.663226 C 145.35578,16.911886 145.2483,17.131936 145.2399,17.307656 C 145.20886,17.962476 144.88118,18.560586 143.86948,19.856796 C 143.35595,20.514736 143.28049,21.384666 143.37598,22.140826 C 143.47145,22.896996 143.73768,23.541696 143.86948,23.755956 C 143.99888,23.966236 144.20021,24.174726 144.38341,24.384066 C 144.56659,24.593416 144.71695,24.794456 144.74639,24.971386 C 144.76158,25.061336 144.7764,25.252036 144.78309,25.468986 C 144.78975,25.685896 144.79912,25.940136 144.81981,26.190896 C 144.84112,26.441656 144.87468,26.679256 144.93401,26.876106 C 144.99365,27.072956 145.06955,27.222356 145.2032,27.275816 C 145.43641,27.369096 145.81746,27.596766 146.15351,27.903916 C 146.48958,28.211056 146.77743,28.601536 146.85503,29.082646 C 147.01558,30.078356 147.86636,30.616036 148.54767,30.583576 C 148.62782,30.579926 148.68173,30.588116 148.71897,30.603966 C 148.75609,30.620026 148.78802,30.633826 148.79646,30.661066 C 148.81349,30.715846 148.76736,30.806026 148.70266,30.905786 C 148.63785,31.005556 148.55253,31.105826 148.45385,31.191296 C 148.35523,31.276776 148.25964,31.341336 148.18875,31.362596 C 148.09217,31.391576 148.008,31.506216 147.93997,31.648096 C 147.87192,31.789976 147.81763,31.973526 147.74826,32.162006 C 147.60955,32.538946 147.44224,32.947936 147.21804,33.112336 C 146.97759,33.288656 146.59673,33.633066 146.28402,33.968846 C 146.12769,34.136746 145.99163,34.303106 145.88841,34.446046 C 145.78526,34.589096 145.71711,34.699506 145.71711,34.788646 C 145.71711,35.064266 145.59736,35.689006 144.87691,36.252876 C 144.69019,36.398966 144.19141,36.856556 143.54728,37.505016 C 142.9031,38.153466 142.10855,38.980476 141.34073,39.809436 C 140.57288,40.638396 139.83882,41.482156 139.2851,42.166886 C 139.00828,42.509236 138.78066,42.813936 138.62029,43.060096 C 138.45993,43.306276 138.35518,43.486796 138.35518,43.610716 C 138.35519,44.331836 138.81046,44.896206 138.94658,45.568456 C 138.94658,45.574456 138.94658,45.583396 138.94658,45.588846 C 138.09499,46.145826 136.28266,46.377496 134.47641,46.465756 C 132.65916,46.554476 130.84616,46.477906 130.04294,46.424966 C 129.80814,46.409126 129.65776,46.372546 129.54943,46.310766 C 129.4411,46.248826 129.38196,46.175846 129.34142,46.066046 C 129.26036,45.846516 129.27115,45.520806 129.17012,45.095336 C 129.10871,44.836866 129.05486,44.651786 129.03552,44.524326 C 129.01603,44.396826 129.03092,44.312446 129.05591,44.238826 C 129.10582,44.091606 129.24227,43.965866 129.51272,43.537296 C 129.61296,43.378516 129.67252,43.111256 129.70034,42.811306 C 129.72833,42.511346 129.73321,42.178426 129.74112,41.860986 C 129.74909,41.543536 129.76293,41.249086 129.79822,41.045256 C 129.81588,40.943336 129.8261,40.862326 129.85532,40.816856 C 129.86993,40.794106 129.89721,40.783016 129.91243,40.776066 C 129.92765,40.769146 129.94761,40.769676 129.96953,40.776066 C 130.00421,40.786126 130.03108,40.776266 130.06333,40.759756 C 130.0956,40.743396 130.12993,40.717066 130.15714,40.682266 C 130.21131,40.612656 130.24676,40.507706 130.29174,40.380446 C 130.38157,40.125916 130.46761,39.763006 130.52014,39.389336 C 130.57248,39.015676 130.59594,38.638256 130.59763,38.304426 C 130.59763,37.970616 130.5687,37.687906 130.49975,37.545796 C 130.42294,37.387646 130.34236,37.330996 130.25503,37.317396 C 130.1677,37.303836 130.0895,37.326126 130.02663,37.354106 C 129.99498,37.368106 129.96983,37.386856 129.94913,37.390816 C 129.92844,37.395116 129.92278,37.400206 129.91243,37.390816 C 129.90211,37.381406 129.88016,37.344986 129.87164,37.297006 C 129.86316,37.249046 129.87164,37.186296 129.87164,37.088996 C 129.88869,36.182776 129.49748,34.477726 128.4482,33.038916 C 127.39893,31.600096 125.68459,30.424046 123.08481,30.603966 C 122.1363,30.669626 121.2814,31.225896 120.61316,31.933606 C 119.94493,32.641316 119.4496,33.515286 119.22235,34.233956 C 118.60462,36.187396 118.89281,38.625316 118.90013,38.687816 C 118.86483,38.669356 118.79358,38.630096 118.67173,38.610326 C 118.51946,38.585596 118.43612,38.600136 118.30873,38.781626 C 118.27647,38.827066 118.25589,38.899076 118.25163,38.989636 C 118.24563,39.080176 118.25652,39.185426 118.26795,39.311846 C 118.29109,39.564676 118.34607,39.858666 118.40254,40.164276 C 118.45914,40.469866 118.42996,40.792886 118.48003,41.024866 C 118.50499,41.140846 118.52072,41.236696 118.53713,41.310366 C 118.55297,41.384046 118.5563,41.433726 118.55753,41.444966 C 118.59951,41.744526 118.76735,41.890476 118.93684,41.938476 C 119.09202,41.982436 119.23754,41.928696 119.33655,41.860986 C 119.38037,42.370716 119.68005,43.225196 120.13596,43.973716 C 120.58716,44.714566 121.25227,45.230976 121.53085,45.168746 C 121.57466,45.345726 121.61855,45.899896 121.54308,46.033416 C 121.46463,46.172066 121.34833,46.254716 121.27797,46.261826 C 121.07464,46.282526 120.86063,46.490096 120.67026,46.718626 C 120.48658,46.939066 120.33896,47.182176 120.25016,47.305946 C 120.24402,47.311956 120.23689,47.322066 120.23384,47.326346 L 120.19306,47.383446 L 120.25016,47.383446 C 120.25629,47.383446 120.26383,47.377436 120.27055,47.383446 C 120.28394,47.391926 120.28656,47.404346 120.30726,47.420156 C 120.34925,47.452426 120.4057,47.503076 120.44185,47.554746 C 120.47776,47.606486 120.50698,47.650826 120.49895,47.705656 C 120.49099,47.760436 120.44542,47.837106 120.34804,47.897346 C 120.30179,47.925956 120.18303,47.998616 120.00544,48.125756 C 119.82785,48.252956 119.5905,48.420376 119.29984,48.619266 C 118.71839,49.017106 118.14986,49.395566 117.24421,49.908116 C 115.44326,50.927396 113.16796,51.942456 111.1018,52.057546 C 111.0276,51.616746 111.00112,51.121016 111.2731,50.744226 C 111.43013,50.526726 111.81348,50.202056 112.26421,49.810226 C 112.71493,49.418486 113.24802,48.959056 113.74475,48.460196 C 114.24155,47.961346 114.682,47.427606 114.98057,46.881776 C 115.2791,46.335916 115.43667,45.779926 115.28647,45.246246 C 114.69754,43.153846 114.90731,43.039566 114.77256,41.004476 C 114.70446,39.975256 114.31177,39.625346 113.70804,39.103836 C 113.4071,38.843876 113.03484,38.491196 112.62313,38.231006 C 112.21135,37.970846 111.76328,37.790806 111.2731,37.868016 C 109.97723,38.072126 107.07285,38.578546 104.71059,37.888406 C 103.88693,37.647826 103.20408,37.541656 102.86705,37.333716 C 102.78281,37.281736 102.7126,37.228236 102.67535,37.162406 C 102.63824,37.096586 102.62587,37.025896 102.63865,36.934006 C 102.663,36.750236 102.79576,36.496756 103.07506,36.154986 C 103.29591,35.884626 103.68788,35.265126 103.91526,34.576556 C 104.13788,33.902176 104.19846,33.161076 103.80106,32.598426 C 104.30886,32.152246 104.83042,31.955906 105.1674,31.725596 C 105.33749,31.609316 105.46112,31.489536 105.49369,31.305496 C 105.52593,31.121456 105.46905,30.878046 105.30199,30.563186 C 105.0434,30.076506 105.17796,29.341856 105.30199,28.548346 C 105.42603,27.754826 105.53702,26.902846 105.26528,26.211296 C 104.94954,25.408586 104.60028,25.180276 104.33128,24.934686 C 104.19671,24.811866 104.0978,24.683616 104.00907,24.477876 C 103.92034,24.272146 103.86034,23.991926 103.83776,23.547946 C 103.80309,22.871226 103.52381,22.397346 103.20965,21.985836 C 102.89552,21.574306 102.53255,21.214846 102.33683,20.733696 C 102.28387,20.602986 102.18045,20.503636 102.03093,20.427796 C 101.8814,20.351976 101.69417,20.312796 101.48032,20.276896 C 101.05254,20.205086 100.51197,20.199036 99.995697,20.219786 C 99.479366,20.240476 98.982135,20.282026 98.608964,20.313596 C 98.422365,20.329366 98.274556,20.347016 98.168472,20.350306 C 98.115532,20.352136 98.063329,20.336906 98.037956,20.333996 C 98.043958,20.262566 98.063204,20.163546 98.017563,20.048486 C 97.968876,19.925786 97.831193,19.790446 97.524049,19.722196 C 97.361493,19.686096 97.099181,19.741106 96.781739,19.820086 C 96.464233,19.899046 96.10423,20.014566 95.753925,20.162686 C 95.403617,20.310816 95.057446,20.480816 94.803605,20.656206 C 94.549748,20.831606 94.371753,21.015746 94.346799,21.190506 C 94.326102,21.336406 94.23725,21.469166 94.081688,21.606526 C 93.926091,21.743846 93.718807,21.874496 93.490288,21.985836 C 93.033288,22.208506 92.493242,22.361806 92.140262,22.405936 C 91.952017,22.429486 91.820954,22.553246 91.740556,22.711826 C 91.66016,22.870436 91.626902,23.079376 91.61004,23.319546 C 91.576575,23.799926 91.606986,24.399126 91.569254,24.955076 C 91.513878,25.715766 91.503494,26.889326 91.418345,27.920236 C 91.375747,28.435686 91.316346,28.914406 91.230727,29.290656 C 91.145097,29.666906 91.027005,29.938776 90.888123,30.032966 C 90.771988,30.111706 90.715052,30.197546 90.696427,30.298076 C 90.677556,30.398586 90.69644,30.497276 90.753528,30.603966 C 90.867391,30.817356 91.098633,31.043086 91.361244,31.268786 C 91.623802,31.494506 91.90904,31.726226 92.140262,31.933606 C 92.371522,32.140986 92.540574,32.329576 92.56036,32.467916 C 92.207664,32.647516 91.855854,32.886526 91.626355,33.210226 C 91.391672,33.541176 91.280128,33.938036 91.402031,34.425656 C 91.449497,34.614596 91.595964,34.731456 91.76095,34.825356 C 91.925945,34.919276 92.113232,35.005946 92.311564,35.127176 C 92.708125,35.369646 93.099548,35.773186 93.188468,36.840196 C 93.197602,36.948606 93.198433,37.040346 93.168075,37.105306 C 93.137635,37.170266 93.085256,37.204446 93.017166,37.239906 C 92.880892,37.310826 92.652563,37.344496 92.368665,37.333716 C 91.80071,37.312166 90.977957,37.162406 89.990825,37.162406 C 89.008486,37.162406 88.057047,37.073126 87.233674,37.068596 C 86.410258,37.064296 85.715765,37.158646 85.239225,37.545796 C 84.580977,38.080606 84.104068,38.406576 83.774998,38.724526 C 83.445937,39.042456 83.253755,39.356616 83.163204,39.809436 C 83.072153,40.264476 83.092581,41.055316 83.089789,41.918086 C 83.089791,42.780856 83.062112,43.715046 82.898092,44.373416 C 82.823292,44.673536 82.923707,45.038776 83.106103,45.437936 C 83.288553,45.837056 83.558733,46.263686 83.889199,46.694156 C 84.544352,47.547576 85.391582,48.383836 86.018243,48.937396 C 85.899748,49.040446 85.815884,49.203486 85.753132,49.430916 C 85.68747,49.668766 85.642096,49.958056 85.618537,50.287426 C 85.572893,50.929176 85.596917,51.709156 85.63893,52.436856 C 84.796883,52.262676 83.411432,51.597966 82.176176,50.931846 C 81.551567,50.595116 80.973405,50.260326 80.520253,50.001916 C 80.29368,49.872716 80.099078,49.763686 79.949245,49.679706 C 79.799413,49.595716 79.701121,49.547716 79.647427,49.524726 C 79.543234,49.480296 79.476001,49.408116 79.439417,49.316716 C 79.402895,49.225306 79.397417,49.110356 79.398631,48.974106 C 79.398631,48.701576 79.451274,48.350476 79.419024,47.966686 C 79.38676,47.579436 79.216868,47.399196 79.019319,47.301866 C 78.821715,47.204566 78.598888,47.190816 78.44831,47.130566 C 78.419717,47.118956 78.392117,47.089236 78.370817,47.036756 C 78.349515,46.984426 78.324053,46.894586 78.313716,46.808356 C 78.293627,46.635826 78.300926,46.424486 78.313716,46.180246 C 78.338668,45.691866 78.411603,45.130366 78.411603,44.809836 C 78.411605,44.504136 78.562871,44.266656 78.754208,44.047126 C 78.945555,43.827666 79.160465,43.638576 79.268115,43.365996 C 79.457274,42.886946 79.572694,42.756196 79.606641,41.844666 C 79.886667,41.778486 80.176918,41.514036 80.389737,41.159466 C 80.613583,40.786546 80.770492,40.333296 80.748656,39.939956 C 80.732827,39.651846 80.659827,39.494906 80.577354,39.409736 C 80.494877,39.324566 80.403344,39.319246 80.312243,39.311846 C 80.221131,39.304406 80.142011,39.305626 80.08384,39.238426 C 80.026023,39.171336 79.990032,39.022496 79.990032,38.740836 C 79.990036,37.505476 79.902782,36.010526 79.13352,34.747866 C 78.364327,33.485186 76.902191,32.454666 74.190224,32.125296 C 73.420662,32.031826 72.605935,32.411446 71.828699,32.981816 C 71.051463,33.552166 70.315927,34.321976 69.699656,35.033366 C 69.551769,35.204126 69.453822,35.532636 69.377444,35.926586 C 69.301002,36.320536 69.251372,36.783706 69.226535,37.239906 C 69.201594,37.696116 69.192138,38.143336 69.206142,38.496116 C 69.212799,38.672506 69.228846,38.812686 69.24285,38.932536 C 69.256856,39.052366 69.275597,39.148376 69.299951,39.197646 C 69.384903,39.372456 69.419138,39.609856 69.397838,39.809436 C 69.386873,39.909236 69.364772,39.994276 69.320344,40.054156 C 69.275931,40.114036 69.214946,40.152046 69.128648,40.152046 L 69.112334,40.152046 L 69.112334,40.168356 C 68.990431,40.255426 68.924822,40.429716 68.883931,40.645556 C 68.843143,40.861376 68.827926,41.114916 68.843145,41.387866 C 68.873582,41.933756 69.007673,42.526896 69.169435,42.868406 C 69.313549,43.172726 69.443531,43.313536 69.585454,43.365996 C 69.727379,43.418336 69.871781,43.368956 69.98516,43.325216 C 70.098552,43.281396 70.183211,43.248216 70.25027,43.268106 C 70.283748,43.278036 70.317369,43.290796 70.348158,43.345606 C 70.378595,43.400396 70.398459,43.486076 70.421573,43.610716 C 70.439217,43.704076 70.467123,43.963076 70.478674,44.275536 C 70.490159,44.587926 70.488169,44.966316 70.499067,45.344126 C 70.510031,45.721886 70.537908,46.093036 70.556168,46.388256 C 70.565306,46.535916 70.564867,46.667816 70.576561,46.767576 C 70.588828,46.867386 70.612975,46.938286 70.633662,46.979656 C 70.698528,47.109486 70.774913,47.234646 70.841672,47.358976 C 70.908444,47.483256 70.947996,47.602516 70.919166,47.717886 C 70.919164,47.724556 70.917658,47.743956 70.898773,47.774996 C 70.876872,47.806036 70.843414,47.843416 70.804964,47.889196 C 70.727908,47.980776 70.608355,48.095476 70.478674,48.231796 C 70.21935,48.504576 69.874026,48.851536 69.512039,49.202506 C 68.788,49.904406 68.002262,50.640066 67.721522,50.858436 C 67.65719,50.908336 67.532522,50.947156 67.362603,50.993026 C 67.192683,51.038676 66.977398,51.085446 66.734494,51.123546 C 66.248646,51.199806 65.646257,51.266146 65.041864,51.315236 C 63.833142,51.413606 62.621861,51.454476 62.301027,51.486536 C 62.136147,51.502996 61.878605,51.595666 61.579109,51.731256 C 61.279691,51.866916 60.930641,52.060476 60.608397,52.302266 C 59.963828,52.785986 59.388391,53.464846 59.356258,54.300806 L 59.356258,54.508816 C 58.791776,53.911666 57.808684,53.191706 56.823431,52.436856 C 55.817609,51.666266 54.830137,50.854946 54.335468,50.095726 C 54.325679,50.080516 54.308073,50.037106 54.294682,49.965216 C 54.280676,49.893296 54.26283,49.788656 54.257975,49.679706 C 54.247662,49.461886 54.279856,49.184616 54.351783,48.900696 C 54.420187,48.630786 54.432442,48.274636 54.392569,47.966686 C 54.372481,47.812716 54.344696,47.682976 54.294682,47.566986 C 54.244771,47.450996 54.175397,47.366626 54.086672,47.322266 C 53.413628,46.985776 53.113231,46.722386 53.099644,46.710466 C 53.113649,46.690386 53.515899,46.092376 53.972471,45.437936 C 54.436834,44.772326 54.939523,44.065336 55.094093,43.879906 C 55.40467,43.507136 56.114585,43.000466 56.750015,42.301476 C 56.915066,42.119946 57.032387,41.810156 57.108934,41.461276 C 57.185509,41.112396 57.221198,40.715566 57.243529,40.339656 C 57.28613,39.618326 57.26635,39.040376 57.263922,38.989636 C 57.288263,39.007046 57.291697,39.019696 57.337337,39.030416 C 57.419979,39.049826 57.533986,39.015956 57.622841,38.875436 C 57.800489,38.594446 57.936197,37.872816 57.77783,36.004076 C 57.619174,34.131826 56.988083,32.902746 56.199401,32.088586 C 55.410731,31.274436 54.448972,30.865856 53.629866,30.661066 C 52.481626,30.374026 50.495875,30.451956 48.817086,31.248396 C 47.147275,32.040606 45.787495,33.559206 45.929418,36.154986 L 45.872317,36.138676 C 45.790955,36.125546 45.695259,36.085536 45.603128,36.061176 L 45.586813,36.061176 L 45.546027,36.040786 L 45.529713,36.040786 C 44.764406,35.837126 43.860242,35.376376 42.960178,34.882456 C 42.060072,34.388546 41.177256,33.881816 40.411036,33.589536 C 39.665138,33.304986 39.203991,33.059336 38.946809,32.847226 C 38.818198,32.741156 38.739588,32.629786 38.702091,32.541326 C 38.664359,32.452856 38.653715,32.374326 38.681698,32.296606 C 38.737688,32.141166 38.919172,32.000376 39.138504,31.860186 C 39.357784,31.720006 39.623535,31.576616 39.844107,31.440086 C 40.127886,31.264456 40.269687,30.997926 40.337621,30.677386 C 40.405527,30.356876 40.402924,29.981136 40.374328,29.633256 C 40.345719,29.285366 40.290008,28.965116 40.28052,28.703326 C 40.274515,28.572426 40.277975,28.446506 40.296834,28.360726 C 40.316932,28.274926 40.35956,28.218276 40.411036,28.189426 L 40.431429,28.189426 L 40.411036,28.148636 C 40.152326,27.576936 39.847396,27.151956 39.615704,26.819006 C 39.499831,26.652526 39.403954,26.520586 39.346514,26.398906 C 39.289295,26.277216 39.281393,26.181456 39.309807,26.097086 C 39.336588,26.016226 39.437797,25.901976 39.574917,25.791196 C 39.712024,25.680436 39.871972,25.552546 40.015409,25.411876 C 40.158925,25.271206 40.273035,25.119816 40.317227,24.934686 C 40.361642,24.749546 40.329959,24.537196 40.166318,24.306576 C 39.91052,23.945776 39.743818,23.325086 39.615704,22.711826 C 39.487601,22.098566 39.410219,21.488786 39.289413,21.133406 C 39.190457,20.842126 39.210001,20.681956 39.309807,20.562396 C 39.409875,20.442836 39.583192,20.376496 39.80332,20.313596 C 40.034766,20.247466 40.214968,20.053606 40.260127,19.820086 C 40.305166,19.586576 40.220933,19.308376 39.974623,19.020676 C 39.102565,18.001026 38.922004,17.413946 38.7959,16.720326 C 38.73371,16.378466 38.736149,15.795306 38.624597,15.141906 C 38.512861,14.488486 38.273398,13.755856 37.731378,13.086276 C 37.680268,13.022716 37.575248,12.950446 37.425481,12.857876 C 37.275635,12.765316 37.082184,12.651536 36.854473,12.535666 C 36.398934,12.303896 35.806416,12.030786 35.182236,11.772956 C 33.933759,11.257276 32.547306,10.780226 31.776583,10.708426 C 31.231769,10.657686 30.525808,10.744686 29.875942,10.993936 C 29.22609,11.243166 28.643929,11.659756 28.354615,12.270546 C 26.694242,13.104236 26.106071,14.113386 25.654563,15.027706 C 25.203057,15.941996 24.88897,16.753566 23.811024,17.193456 L 23.811024,17.177136 C 22.821869,17.528106 22.076224,18.283246 21.677902,19.057386 C 21.478708,19.444456 21.365545,19.844526 21.355691,20.199396 C 21.346032,20.554286 21.449434,20.864096 21.661587,21.092616 C 21.866498,21.313256 22.00414,21.499846 22.077608,21.647306 C 22.151062,21.794776 22.153248,21.896116 22.098001,22.006226 C 22.04321,22.116366 21.917412,22.229206 21.718688,22.348836 C 21.519991,22.468456 21.246579,22.610876 20.898885,22.768936 C 20.200519,23.086356 19.668529,23.430316 19.377556,23.776356 C 19.232031,23.949366 19.153591,24.119896 19.149153,24.290256 C 19.14315,24.460626 19.214568,24.616726 19.377556,24.763376 C 19.690482,25.045046 19.990734,25.449546 20.119867,25.848296 C 20.249078,26.247036 20.21006,26.645416 19.87107,26.953596 C 19.524433,27.268716 19.29661,27.428056 19.149153,27.504216 C 19.075386,27.542316 19.010232,27.552606 18.977851,27.561316 C 18.945587,27.570196 18.941144,27.561316 18.941144,27.561316 L 10.914406,27.691836 L 10.898091,27.691836 L 10.898091,27.712226 C 10.898091,27.712226 8.2314,31.955996 5.685606,36.860586 C 4.412722,39.312876 3.172467,41.940676 2.300346,44.279606 C 1.42829,46.618616 0.857297,48.671556 1.137937,50.001916 C 1.388336,51.188926 1.563616,51.755676 2.006685,52.285946 C 2.549887,53.020766 3.794854,54.320016 3.503541,55.373476 C 3.212226,56.426936 2.284644,56.834566 1.680395,58.481396 C 0.99962,59.981056 0.319555,62.364806 0,63.779526 L 198.4252,63.779526 C 197.94671,61.985526 197.30448,59.982496 196.66731,57.971566 C 196.11354,56.223856 195.57406,54.572326 195.16638,53.252586 C 194.75871,51.932856 194.48757,50.946236 194.46485,50.536216 C 194.41642,49.660996 194.73103,48.252566 195.08889,46.616666 C 195.44429,44.991896 195.84138,43.136946 195.90869,41.310366 L 195.90869,41.273666 C 195.97204,39.436686 195.88011,37.161506 195.64358,35.167966 C 195.52528,34.171186 195.35433,33.248746 195.16638,32.484226 C 194.97844,31.719696 194.75952,31.109566 194.50157,30.754876 C 194.00107,30.066726 193.83736,29.120836 193.77964,28.283236 C 193.7508,27.864436 193.73326,27.481606 193.73886,27.161606 C 193.74434,26.841626 193.77113,26.590886 193.75925,26.456006 C 193.75221,26.375626 193.70281,26.222836 193.64505,26.019596 C 193.58729,25.816346 193.51342,25.569426 193.41665,25.277286 C 193.22312,24.693046 192.97277,23.969926 192.69473,23.262446 C 192.41667,22.554966 192.10555,21.861676 191.83822,21.341416 C 191.70457,21.081276 191.5893,20.848996 191.47521,20.692916 C 191.36111,20.536816 191.25254,20.439586 191.15301,20.427796 C 191.00917,20.410736 190.21466,20.349956 189.08107,20.256496 C 187.94748,20.163046 186.48102,20.049556 185.03098,19.913896 C 183.58095,19.778226 182.14277,19.620556 181.05433,19.477486 C 180.51009,19.405956 180.05065,19.336126 179.7247,19.269476 C 179.56174,19.236116 179.43262,19.202356 179.34131,19.171586 C 179.29567,19.156186 179.25571,19.148566 179.23119,19.134876 C 179.20667,19.121176 179.19172,19.101206 179.19039,19.098166 C 178.95772,18.564736 178.54725,17.913636 178.24007,17.405536 C 178.08645,17.151476 177.96192,16.941556 177.89747,16.793746 C 177.86522,16.719836 177.85894,16.648576 177.86077,16.622446 C 177.86077,16.621006 177.8786,16.618786 177.89747,16.622446 C 178.01469,16.644106 178.11994,16.587746 178.20337,16.491926 C 178.2868,16.396086 178.35509,16.264546 178.41137,16.092226 C 178.52396,15.747586 178.57734,15.273836 178.61938,14.799296 C 178.70351,13.850196 178.69689,12.878266 178.69689,12.878266 C 178.71599,12.868346 178.8472,12.805986 179.0191,12.686566 C 179.20298,12.558806 179.40198,12.401726 179.4963,12.213446 C 179.52205,12.162026 179.54944,12.060976 179.56971,11.944256 C 179.58998,11.827546 179.61355,11.691236 179.62681,11.528236 C 179.65354,11.202256 179.65402,10.812866 179.62681,10.443316 C 179.59961,10.073786 179.53901,9.7187658 179.41879,9.4929958 C 179.35866,9.3801058 179.28647,9.3040458 179.19039,9.2645958 C 179.11541,9.2337958 179.01906,9.2697858 178.92529,9.3013058 C 179.2062,8.5547158 179.46002,8.2162658 179.21079,7.0947658 C 178.95546,5.9457558 178.05882,4.6829358 177.42435,3.9215958 C 177.10315,3.5361158 176.7791,3.4288658 176.41285,3.3505858 C 176.0466,3.2723358 175.64182,3.2235058 175.14032,2.9100958 C 174.64565,2.6009158 174.36245,1.9546258 174.03909,1.3724558 C 173.87745,1.0813658 173.70793,0.80675576 173.48439,0.59343576 C 173.2608,0.38011576 172.98287,0.22599576 172.62788,0.19373576 C 172.53979,0.18572576 172.45257,0.17800576 172.36685,0.17741576 z"
       id="path3935" />
  </g>
</svg>
